<svg version="1.1" viewBox="0 0 1536 1024" xmlns="http://www.w3.org/2000/svg">
<path transform="translate(766.81 272.81)" d="m0 0c0.94682-0.012246 1.8936-0.024492 2.8691-0.037109 14.983-0.030936 14.983-0.030936 18.91 3.7622 1.9928 3.4845 1.8319 6.7764 1.8089 10.683 0.0069791 0.82873 0.013958 1.6575 0.021149 2.5113 0.020059 2.7549 0.019477 5.5094 0.019623 8.2643 0.011798 1.9459 0.025169 3.8918 0.040024 5.8377 0.036294 5.1561 0.056379 10.312 0.071548 15.468 0.027654 9.1064 0.073766 18.213 0.13843 27.319 0.0069526 0.99104 0.013905 1.9821 0.021069 3.0031 0.10673 13.624 0.45776 27.213 1.2055 40.817 0.059459 1.1012 0.059459 1.1012 0.12012 2.2247 1.7532 31.641 6.7905 62.971 15.962 93.334 0.52481 1.7477 1.0493 3.4955 1.5735 5.2434 0.26783 0.89298 0.53566 1.786 0.8116 2.706 0.20292 0.67669 0.40584 1.3534 0.61491 2.0506-0.0044412-1.1353-0.0088824-2.2706-0.013458-3.4402-0.041148-10.879-0.070807-21.757-0.090166-32.636-0.010288-5.5883-0.02416-11.177-0.047255-16.765-0.17261-42.972-0.17261-42.972 1.0337-64.268 0.039063-0.7027 0.078127-1.4054 0.11837-2.1294 0.43896-7.6305 1.1002-15.227 1.9593-22.821 0.076317-0.69149 0.15263-1.383 0.23126-2.0954 1.5489-13.001 6.1309-25.206 15.816-34.31 9.2699-7.1433 18.935-8.4656 30.273-7.1562 6.1007 0.92236 6.1007 0.92236 8.7188 1.6211l1 2c1.7766 0.58906 1.7766 0.58906 4 1.0625 22.262 6.3968 41.924 23.541 58.656 38.816 2.143 1.9394 4.3272 3.8144 6.5312 5.6836 3.2495 2.8353 6.0606 5.8671 8.8438 9.1562 1.9039 2.2061 3.8761 4.3353 5.8701 6.4597 6.178 6.6066 11.732 13.547 17.099 20.822 0.40573 0.5435 0.81146 1.087 1.2295 1.647 9.2618 12.438 17.493 25.624 24.649 39.384 1.0874 2.1114 1.0874 2.1114 3.1211 3.9688 1.0886 2.1434 2.124 4.3142 3.125 6.5 0.53883 1.1653 1.0777 2.3306 1.6328 3.5312 1.2422 2.9688 1.2422 2.9688 1.2422 4.9688l2 1c1.0715 2.2367 2.0228 4.4485 2.9375 6.75 0.44473 1.1049 0.44473 1.1049 0.89844 2.2322 1.0655 2.6684 2.1152 5.3428 3.1641 8.0178 0.42555 1.0759 0.8511 2.1518 1.2896 3.2603 8.8428 22.439 15.752 44.902 21.085 68.427 0.17566 0.76563 0.35133 1.5313 0.53232 2.3201 1.9553 8.5809 3.4922 16.826 3.8061 25.66 0.14188 1.1547 0.14188 1.1547 0.28662 2.3328l2 1c0.37891 2.4878 0.37891 2.4878 0.5625 5.8672 0.11021 1.906 0.11021 1.906 0.22266 3.8506 0.072121 1.4274 0.14372 2.8548 0.21484 4.2822 0.081484 1.5186 0.16353 3.0371 0.24609 4.5557 0.30569 5.7005 0.59766 11.402 0.87891 17.104 0.12149 2.4497 0.24788 4.8992 0.375 7.3486 0.035449 0.74477 0.070898 1.4895 0.10742 2.2569 0.17704 3.3505 0.38832 6.5207 1.3926 9.7353h-2c0.01571 0.65782 0.031421 1.3156 0.047607 1.9934 0.55255 26.809-1.1207 56.328-20.747 76.878-8.297 7.6772-16.814 9.8134-28.016 9.5-16.536-1.0449-32.525-11.389-45.995-20.29-4.5501-2.9938-9.1354-5.8424-13.915-8.4561-1.0648-0.58523-2.1295-1.1705-3.2266-1.7734-10.444-4.9918-21.705-7.6117-32.986-9.8764-25.535-5.1706-50.953-12.783-66.662-35.263-13.929-21.211-17.733-49.21-18.844-74.017-0.55184-11.935-2.1977-18.368-10.32-27.147-23.129-26.806-31.786-68.783-37.336-102.55-0.11481 0.66193-0.22961 1.3239-0.3479 2.0059-6.0434 34.318-15.545 68.121-35.648 96.982-2.1052 2.8785-2.1052 2.8785-3.0039 6.0117l-2.375 2.3125c-4.3916 4.4961-5.9451 8.792-6.4336 14.992-0.1049 1.2115-0.20979 2.423-0.31787 3.6711-0.10264 1.2867-0.20528 2.5735-0.31104 3.8992-0.24047 2.7107-0.49482 5.4199-0.75391 8.1289-0.064655 0.678-0.12931 1.356-0.19592 2.0546-2.4949 25.462-6.9924 51.34-24.613 70.942-0.5182 0.61102-1.0364 1.222-1.5703 1.8516-15.993 17.601-40.088 22.083-62.224 26.736-20.239 4.2887-36.946 13.341-54.315 24.354-15.198 9.5979-30.426 17.567-48.891 16.059-9.5395-2.2462-17.27-7.9844-22.688-16.062-22.449-38.402-16.231-88.908-10.992-131.16 0.48695-3.9756 0.87271-7.9452 1.18-11.938 0.33605-3.909 1.1592-7.132 2.5-10.836 0.6762-2.7908 1.2857-5.5936 1.9014-8.3984 9.9068-45.028 26.577-89.015 52.099-127.6 0.4328-0.65807 0.86561-1.3161 1.3115-1.9941 6.0044-9.0789 12.454-17.674 19.353-26.092 2.2907-2.6481 2.2907-2.6481 3.3359-4.9141h2c0.22559-0.5427 0.45117-1.0854 0.68359-1.6445 1.7186-3.0751 3.9806-5.4944 6.3789-8.043 0.77815-0.8329 0.77815-0.8329 1.572-1.6826 21.261-22.582 21.261-22.582 33.365-31.63 0.52094-0.39204 1.0419-0.78407 1.5786-1.188 19.241-14.396 42.397-29.921 67.398-27.269 8.1395 1.2304 8.1395 1.2304 12.023 5.457 1.1228 0.87785 2.248 1.7526 3.375 2.625 14.809 12.653 16.687 36.38 18.372 54.513 0.22454 2.087 0.22454 2.087 1.2527 4.8618 0.045978 1.5201 0.038068 3.0421 0 4.5625-0.05551 4.8392 0.15989 9.6338 0.46484 14.461 0.6292 10.674 0.88216 21.35 1.0977 32.039 0.021179 1.0018 0.042358 2.0035 0.064178 3.0357 0.43791 20.968 0.4836 41.93 0.37332 62.902 16.379-52.155 19.372-104.21 19.015-158.43-0.010189-1.8213-0.010189-1.8213-0.020584-3.6795-0.014006-2.3045-0.03261-4.6091-0.056366-6.9135-0.0064302-1.023-0.01286-2.0459-0.019485-3.0999-0.008253-0.89656-0.016506-1.7931-0.025009-2.7168 0.1068-2.1555 0.1068-2.1555 1.1068-4.1555 0.026204-2.8822-0.0060788-5.741-0.078125-8.6211-0.027256-1.7571-0.053259-3.5143-0.078125-5.2715-0.043289-2.7767-0.093942-5.5523-0.16602-8.3284-0.066506-2.6752-0.10135-5.3493-0.13086-8.0251-0.043415-1.247-0.043415-1.247-0.087708-2.5191-0.010925-2.3458-0.010925-2.3458 0.54083-6.2348 6.0229-5.109 14.341-4.1825 21.812-4.1875zm-42.812 223.19 1 3zm-1 3 1 3z" fill="#4DA8EC"/>
<path transform="translate(869,312)" d="m0 0 1 2c1.7766 0.58906 1.7766 0.58906 4 1.0625 22.262 6.3968 41.924 23.541 58.656 38.816 2.143 1.9394 4.3272 3.8144 6.5312 5.6836 3.2495 2.8353 6.0606 5.8671 8.8438 9.1562 1.9039 2.2061 3.8761 4.3353 5.8701 6.4597 6.178 6.6066 11.732 13.547 17.099 20.822 0.40573 0.5435 0.81146 1.087 1.2295 1.647 9.2618 12.438 17.493 25.624 24.649 39.384 1.0874 2.1114 1.0874 2.1114 3.1211 3.9688 1.0886 2.1434 2.124 4.3142 3.125 6.5 0.53883 1.1653 1.0777 2.3306 1.6328 3.5312 1.2422 2.9688 1.2422 2.9688 1.2422 4.9688l2 1c1.0715 2.2367 2.0228 4.4485 2.9375 6.75 0.29648 0.73662 0.59297 1.4732 0.89844 2.2322 1.0655 2.6684 2.1152 5.3428 3.1641 8.0178 0.42555 1.0759 0.8511 2.1518 1.2896 3.2603 8.8428 22.439 15.752 44.902 21.085 68.427 0.17566 0.76563 0.35133 1.5313 0.53232 2.3201 1.9553 8.5809 3.4922 16.826 3.8061 25.66 0.094585 0.76981 0.18917 1.5396 0.28662 2.3328l2 1c0.37891 2.4878 0.37891 2.4878 0.5625 5.8672 0.073477 1.2707 0.14695 2.5414 0.22266 3.8506 0.072121 1.4274 0.14372 2.8548 0.21484 4.2822 0.081484 1.5186 0.16353 3.0371 0.24609 4.5557 0.30569 5.7005 0.59766 11.402 0.87891 17.104 0.12149 2.4497 0.24788 4.8992 0.375 7.3486 0.035449 0.74477 0.070898 1.4895 0.10742 2.2569 0.17704 3.3505 0.38832 6.5207 1.3926 9.7353h-2c0.023566 0.98674 0.023566 0.98674 0.047607 1.9934 0.55255 26.809-1.1207 56.328-20.747 76.878-8.297 7.6772-16.814 9.8134-28.016 9.5-16.536-1.0449-32.525-11.389-45.995-20.29-4.5501-2.9938-9.1354-5.8424-13.915-8.4561-1.0648-0.58523-2.1295-1.1705-3.2266-1.7734-10.444-4.9918-21.705-7.6117-32.986-9.8764-25.535-5.1706-50.953-12.783-66.662-35.263-17.125-26.077-18.309-60.589-20.5-90.712h2l-1-2c-0.16948-1.4871-0.28528-2.9805-0.37305-4.4746-0.056759-0.92857-0.11352-1.8571-0.172-2.8138-0.085984-1.5124-0.085984-1.5124-0.17371-3.0553-0.062802-1.0389-0.1256-2.0777-0.19031-3.1481-0.20109-3.3358-0.39636-6.672-0.59094-10.008-0.19539-3.3076-0.39206-6.6151-0.59094-9.9225-0.12356-2.059-0.24502-4.1182-0.36401-6.1775-0.056759-0.95379-0.11352-1.9076-0.172-2.8903-0.048058-0.82448-0.096116-1.649-0.14563-2.4984-0.19649-2.6018-0.46054-5.1819-0.74165-7.7754-0.49209-4.8538-0.6338-9.6448-0.63103-14.521-0.0033586-0.87022-0.0067172-1.7404-0.010178-2.637-0.0094351-2.8568-0.011451-5.7136-0.012527-8.5705-0.0032242-2.0294-0.0065891-4.0588-0.010086-6.0882-0.0059776-4.2616-0.007842-8.5232-0.0072479-12.785 8.034e-5 -4.2933-0.0067141-8.5866-0.020508-12.88-0.066195-20.938-0.084632-41.851 1.0925-62.763 0.038947-0.70555 0.077894-1.4111 0.11802-2.138 0.4372-7.6638 1.0922-15.294 1.9555-22.92 0.076333-0.69109 0.15267-1.3822 0.23131-2.0942 1.5503-12.999 6.1326-25.202 15.816-34.305 11.522-8.8784 25.318-9.1845 38.992-5.5352z" fill="#FE9029"/>
<path transform="translate(766.81 272.81)" d="m0 0c1.4202-0.018369 1.4202-0.018369 2.8691-0.037109 14.983-0.030936 14.983-0.030936 18.91 3.7622 1.9928 3.4845 1.8319 6.7764 1.8089 10.683 0.010469 1.2431 0.010469 1.2431 0.021149 2.5113 0.020059 2.7549 0.019477 5.5094 0.019623 8.2643 0.011798 1.9459 0.025169 3.8918 0.040024 5.8377 0.036294 5.1561 0.056379 10.312 0.071548 15.468 0.027654 9.1064 0.073766 18.213 0.13843 27.319 0.010429 1.4866 0.010429 1.4866 0.021069 3.0031 0.10673 13.624 0.45776 27.213 1.2055 40.817 0.039639 0.73415 0.079279 1.4683 0.12012 2.2247 1.8196 32.839 6.8018 65.893 17.23 97.165 4.2583 13.266 4.9201 26.451 5.5444 40.294 0.1199 2.3269 0.24163 4.6537 0.36523 6.9805 0.29519 5.6306 0.56792 11.262 0.82227 16.895-17.349-8.132-27.954-39.915-34.188-56.75-6.5668-18.312-10.662-37.084-13.812-56.25-0.11481 0.66193-0.22961 1.3239-0.3479 2.0059-6.0434 34.318-15.545 68.121-35.648 96.982-2.1052 2.8785-2.1052 2.8785-3.0039 6.0117-1.6454 1.6876-3.3129 3.354-5 5l-2 3h-2c-0.53742-24.662 1.0313-49.875 9.0991-73.257 15.055-45.835 15.34-95.357 14.967-143.06-0.00925-1.2915-0.0185-2.583-0.02803-3.9136-0.019506-2.4469-0.044105-4.8938-0.074432-7.3407-0.014419-1.6259-0.014419-1.6259-0.029129-3.2846-0.011269-0.94952-0.022538-1.899-0.034149-2.8773 0.10007-2.267 0.10007-2.267 1.1001-4.267 0.026204-2.8822-0.0060788-5.741-0.078125-8.6211-0.027256-1.7571-0.053259-3.5143-0.078125-5.2715-0.043289-2.7767-0.093942-5.5523-0.16602-8.3284-0.066506-2.6752-0.10135-5.3493-0.13086-8.0251-0.028943-0.83132-0.057887-1.6626-0.087708-2.5191-0.010925-2.3458-0.010925-2.3458 0.54083-6.2348 6.0229-5.109 14.341-4.1825 21.812-4.1875z" fill="#8096B7"/>
<path transform="translate(811,424)" d="m0 0h1c0.74601 10.538 1.1594 21.073 1.4648 31.633 0.019292 0.66026 0.038584 1.3205 0.05846 2.0008 0.18157 6.216 0.35931 12.432 0.52626 18.649 0.38896 14.395 0.88394 28.734 2.2547 43.077 0.72618 7.6157 1.0431 15.178 1.1957 22.829 0.24625 9.4864 0.76071 18.842 1.8354 28.269 0.72951 6.5425 0.88089 12.957 0.66455 19.543h2l-0.125 3.5c-0.010647 3.0237 0.30576 5.5923 1.125 8.5 1.1545 4.0976 1.1516 7.7554 1 12l2 1c0.31641 1.6875 0.31641 1.6875 0.5625 4 2.7119 14.767 13.26 29.634 25.062 38.438 4.0238 2.7478 8.0678 5.287 12.375 7.5625 0.57114 0.31034 1.1423 0.62068 1.7307 0.94043 5.1838 2.7251 10.385 4.5004 16.019 6.0596 0.91032 0.25709 1.8206 0.51417 2.7585 0.77905 6.223 1.7134 12.463 3.0878 18.804 4.2834 19.637 3.7393 36.193 10.945 52.797 22.055 2.265 1.4753 4.4425 2.7538 6.8906 3.8828v2l2.4375 0.75c4.3057 1.5108 8.4161 3.3519 12.562 5.25v2l2.0625-0.125c3.5367 0.1505 6.5707 1.0688 9.9375 2.125v2c12.074 0.65069 23.027 0.52038 33-7.375l2-2.625c0.60328-0.76957 0.60328-0.76957 1.2188-1.5547 6.4158-8.4891 9.9761-17.216 12.781-27.445 0.27844-0.94617 0.55688-1.8923 0.84375-2.8672 2.4672-8.9067 3.29-17.961 4.1562-27.133h1c0.9242 6.3681 0.95994 11.796-0.125 18.125-0.13688 0.82186-0.27376 1.6437-0.41479 2.4905-3.0654 17.232-9.3375 35-23.605 46.045-8.6368 5.6643-17.761 6.4568-27.855 5.3398-15.207-3.3464-28.861-11.429-41.71-19.919-4.5501-2.9938-9.1354-5.8424-13.915-8.4561-1.0648-0.58523-2.1295-1.1705-3.2266-1.7734-10.444-4.9918-21.705-7.6117-32.986-9.8764-25.535-5.1706-50.953-12.783-66.662-35.263-17.125-26.077-18.309-60.589-20.5-90.712h2l-1-2c-0.16948-1.4871-0.28528-2.9805-0.37305-4.4746-0.056759-0.92857-0.11352-1.8571-0.172-2.8138-0.057323-1.0082-0.11465-2.0165-0.17371-3.0553-0.062802-1.0389-0.1256-2.0777-0.19031-3.1481-0.20109-3.3358-0.39636-6.672-0.59094-10.008-0.19539-3.3076-0.39206-6.6151-0.59094-9.9225-0.12356-2.059-0.24502-4.1182-0.36401-6.1775-0.26086-4.3835-0.57029-8.7335-1.0839-13.095-0.74618-7.1767-0.58449-14.388-0.55884-21.594 0.0018689-1.5551 0.0032906-3.1102 0.0042877-4.6654 0.0037882-4.0605 0.013586-8.121 0.024704-12.182 0.010294-4.1565 0.014811-8.313 0.019836-12.469 0.010672-8.1315 0.027703-16.263 0.048828-24.395z" fill="#FB5410"/>
<path transform="translate(719,554)" d="m0 0h2c-3.3143 48.092-3.3143 48.092-10 68-0.36867 1.1189-0.73734 2.2378-1.1172 3.3906-6.7248 18.9-19.909 33.796-37.758 42.859-0.93501 0.47591-0.93501 0.47591-1.8889 0.96143-11.488 5.5719-23.743 8.137-36.167 10.64-13.623 2.7638-26.274 6.7638-38.569 13.398-1.347 0.71507-1.347 0.71507-2.7212 1.4446-6.3692 3.4266-12.42 7.1835-18.447 11.173-14.62 9.3582-29.597 16.581-47.332 15.133-9.5395-2.2462-17.27-7.9844-22.688-16.062-11.481-19.64-14.09-40.865-14.938-63.25-0.051562-1.1466-0.10312-2.2932-0.15625-3.4746-0.28822-7.4894-0.024893-14.762 0.78125-22.213h1c0.025056 0.92861 0.050112 1.8572 0.075928 2.814 0.095052 3.4404 0.19429 6.8806 0.29639 10.321 0.043351 1.4899 0.085026 2.9798 0.125 4.4697 0.057698 2.1398 0.12139 4.2794 0.18628 6.4189 0.054987 1.9324 0.054987 1.9324 0.11108 3.9038 6.2902e-4 2.9855 6.2902e-4 2.9855 1.2053 5.0728 0.0199 1.3958-0.0072804 2.7926-0.0625 4.1875-0.054848 4.2576 0.68427 7.7589 2.0625 11.812 1 3 1 3 0.4375 4.8125-0.62959 3.1479 0.48299 5.1762 1.5625 8.1875 0.33 1.4336 0.64128 2.8716 0.9375 4.3125 0.99783 4.6938 2.4602 9.169 4.0625 13.688h2c0.12117 0.5659 0.24234 1.1318 0.36719 1.7148 0.16758 0.73348 0.33516 1.467 0.50781 2.2227 0.24363 1.0963 0.24363 1.0963 0.49219 2.2148 0.46243 2.0547 0.46243 2.0547 2.6328 2.8477l1.8125 2.375c2.217 2.6604 4.2341 3.9022 7.1875 5.625v2c10.98 4.5434 21.964 4.2389 33 0 0.7657-0.28617 1.5314-0.57234 2.3203-0.86719 0.7193-0.2707 1.4386-0.54141 2.1797-0.82031 3.5-1.3125 3.5-1.3125 5.5-1.3125v-2h4l1-3c1.5664-0.99219 1.5664-0.99219 3.5625-1.875 3.814-1.773 7.2681-3.8536 10.773-6.1719 1.6641-0.95312 1.6641-0.95312 3.6641-0.95312v-2c1.4753-0.60328 1.4753-0.60328 2.9805-1.2188 4.2638-1.8259 8.2716-4.0481 12.332-6.2812 6.1047-3.2962 11.897-5.928 18.688-7.5 1.1756-0.35062 2.3512-0.70125 3.5625-1.0625 3.456-0.94254 6.9183-1.7315 10.422-2.4727 2.2021-0.47426 2.2021-0.47426 5.0156-1.4648 1.7969-0.32352 3.5941-0.64521 5.394-0.95117 6.6295-1.1375 12.775-2.5868 19.055-5.0645 4.1045-1.584 8.3238-2.774 12.551-3.9844v-2c5.75-3 5.75-3 8-3v-2c2.9174-2.5932 5.7529-4.8353 9-7 2.6065-2.3765 3.8704-3.6111 5-7h3l1-5h2l1-5h2l0.375-1.6875c0.625-2.3125 0.625-2.3125 1.5625-4.5 1.2046-3.1887 1.8611-6.3453 2.5547-9.6758 0.50781-2.1367 0.50781-2.1367 1.6328-4.8242 1.0519-2.3681 1.0519-2.3681 0.875-5.3125 0-3.2499 0.76815-5.0291 2-8 0.38749-2.325 0.71758-4.66 1-7 0.55494-3.9545 1.1336-7.9053 1.7188-11.855 1.3784-9.3695 2.7133-18.685 3.2812-28.145z" fill="#216ACD"/>
<path transform="translate(867.06 311.94)" d="m0 0c1.4541 0.030938 1.4541 0.030938 2.9375 0.0625v2c0.78697 0.16822 0.78697 0.16822 1.5898 0.33984 23.268 5.9234 43.772 23.75 61.066 39.539 2.143 1.9394 4.3272 3.8144 6.5312 5.6836 3.2495 2.8353 6.0606 5.8671 8.8438 9.1562 1.9039 2.2061 3.8761 4.3353 5.8701 6.4597 6.178 6.6066 11.732 13.547 17.099 20.822 0.40573 0.5435 0.81146 1.087 1.2295 1.647 9.2618 12.438 17.493 25.624 24.649 39.384 1.0874 2.1114 1.0874 2.1114 3.1211 3.9688 1.0886 2.1434 2.124 4.3142 3.125 6.5 0.53883 1.1653 1.0777 2.3306 1.6328 3.5312 1.2422 2.9688 1.2422 2.9688 1.2422 4.9688l2 1c-0.99 0.33-1.98 0.66-3 1-0.58008-1.0996-1.1602-2.1991-1.7578-3.332-7.1782-17.347-7.1782-17.347-18.242-30.668l-1.25-3.5625c-1.915-5.4324-5.1911-10.02-9.375-13.973-1.375-1.4648-1.375-1.4648-2.375-4.5898l-1-2.875-3-1c-1.3242-1.75-1.3242-1.75-2.6875-4-2.7556-4.3039-5.8384-8.0208-9.2852-11.785-2.5962-2.8363-5.0866-5.7587-7.582-8.6836-1.3872-1.6453-1.3872-1.6453-3.4453-2.5312-0.43312-0.7425-0.86625-1.485-1.3125-2.25-2.6756-4.3603-6.0669-7.3836-10.25-10.25-3.1014-2.128-5.1132-4.5345-7.4375-7.5-1.3247-0.6837-2.6586-1.3496-4-2-1.1368-1.1368-2.2705-2.2768-3.3828-3.4375-5.0058-4.8365-10.588-9.0965-16.617-12.562-0.66645-0.38543-1.3329-0.77086-2.0195-1.168-0.59168-0.33645-1.1834-0.67289-1.793-1.0195l-3.1875-1.8125v-2l-2.625-0.8125c-3.2947-1.1592-6.2559-2.628-9.375-4.1875-2.2353-0.68637-2.2353-0.68637-4-1v-2c-1.414-0.50758-2.8313-1.0057-4.25-1.5-0.78891-0.27844-1.5778-0.55688-2.3906-0.84375-2.5935-0.8349-2.5935-0.8349-6.3594-0.65625v-2c-0.99-0.33-1.98-0.66-3-1 1-1 1-1 4.0625-1.0625z" fill="#FCAF2C"/>
<path transform="translate(677,311)" d="m0 0c-2.4702 2.9902-4.2455 3.347-8 4-5.5018 1.634-10.756 3.6806-16 6-1.1969 0.44666-1.1969 0.44666-2.418 0.90234-2.6428 1.1235-4.7906 2.4602-7.1445 4.0977-2.1103 1.4629-4.1129 2.8431-6.4258 3.9609-3.3382 1.7242-6.0844 4.2145-8.9883 6.5781-2.0234 1.4609-2.0234 1.4609-4.0234 1.4609v2c-0.55688 0.25652-1.1138 0.51305-1.6875 0.77734-5.6808 2.85-9.2996 6.1079-13.352 10.969-1.8497 2.126-3.74 3.8871-5.8984 5.6914-4.0049 3.3755-7.3792 7.1652-10.789 11.133-2.2734 2.4297-2.2734 2.4297-5.2539 4.8594-3.1011 2.6397-5.2969 5.2968-7.707 8.5703-3.9925 5.3487-8.1729 10.477-12.557 15.51-2.8818 3.339-5.3336 6.809-7.7551 10.49-0.68449 0.83145-1.369 1.6629-2.0742 2.5195-2.0345 2.6205-3.3457 5.162-4.7383 8.168-1.9611 4.0456-4.033 7.6853-6.6875 11.312-3.8911 5.321-6.7069 11.046-9.5 17l-2-3c10.995-20.281 23.07-39.509 37.805-57.297 2.1707-2.4733 2.1707-2.4733 3.1953-4.7031h2c0.22559-0.5427 0.45117-1.0854 0.68359-1.6445 1.7186-3.0751 3.9806-5.4944 6.3789-8.043 0.51877-0.55526 1.0375-1.1105 1.572-1.6826 21.261-22.582 21.261-22.582 33.365-31.63 0.52094-0.39204 1.0419-0.78407 1.5786-1.188 36.671-27.437 36.671-27.437 56.421-26.812z" fill="#8AD6F3"/>
<path transform="translate(773,461)" d="m0 0c1.9666 2.9499 2.6805 4.9913 3.5859 8.375 0.29133 1.0686 0.58266 2.1373 0.88281 3.2383 0.29906 1.1176 0.59812 2.2352 0.90625 3.3867 4.0885 15.25 9.2566 29.98 16.707 43.941 0.91797 2.0586 0.91797 2.0586 0.91797 5.0586h2l1 5h2c3 5.75 3 5.75 3 8h2l2 6h4c0.026847-2.6459 0.046764-5.2915 0.0625-7.9375 0.012568-1.1321 0.012568-1.1321 0.025391-2.2871 0.0086338-1.9253-0.035647-3.8507-0.087891-5.7754l-1-1c0.090316-2.3569 0.24688-4.7115 0.4375-7.0625 0.10184-1.2904 0.20367-2.5807 0.30859-3.9102 0.083789-0.99902 0.16758-1.998 0.25391-3.0273h-2v-9h-2c-0.20496-1.1086-0.40992-2.2172-0.62109-3.3594-0.27207-1.4636-0.54421-2.9271-0.81641-4.3906-0.13471-0.72961-0.26941-1.4592-0.4082-2.2109-0.75689-4.0938-0.75689-4.0938-1.6953-8.1484-0.79538-3.2763-0.51495-6.5328-0.45898-9.8906 1.7909 2.6864 2.5745 4.4653 3.4727 7.4922 0.25975 0.87012 0.51949 1.7402 0.78711 2.6367 0.2649 0.90621 0.5298 1.8124 0.80273 2.7461 0.26877 0.89848 0.53754 1.797 0.81445 2.7227 1.7357 5.8608 3.1553 11.434 3.512 17.56 0.059987 1.0007 0.11997 2.0013 0.18178 3.0323 0.06046 1.0679 0.12092 2.1358 0.18321 3.236 0.09776 1.6541 0.09776 1.6541 0.19749 3.3416 0.20698 3.5149 0.4091 7.03 0.6111 10.545 0.13965 2.3861 0.27962 4.7722 0.41992 7.1582 0.34286 5.8429 0.68174 11.686 1.0176 17.529-17.421-8.1659-28.026-40.105-34.25-57-2.5426-7.0872-4.798-14.228-6.75-21.5-0.31179-1.1563-0.31179-1.1563-0.62988-2.3359-1.0539-4.1492-1.5887-7.8463-1.3701-12.164z" fill="#6B7191"/>
<path transform="translate(764,451)" d="m0 0h1c0.35141 6.3253-0.9343 11.89-2.5 18-0.26627 1.0473-0.53254 2.0946-0.80688 3.1736-4.3265 16.53-9.9112 32.599-17.693 47.826-0.86432 1.7074-0.86432 1.7074-1.7461 3.4492-3.2219 6.1784-6.7221 11.927-10.871 17.527-1.551 2.0711-1.551 2.0711-2.3828 5.0234-1.6454 1.6876-3.3129 3.354-5 5l-2 3h-2c-0.23973-10.337 0.42164-20.63 1.125-30.938 0.062026-0.91137 0.12405-1.8227 0.18796-2.7617 0.93497-13.173 2.0676-26.154 7.687-38.301l2-1 1 4h-2c-0.10957 1.0738-0.21914 2.1476-0.33203 3.2539-0.15958 1.4363-0.31977 2.8725-0.48047 4.3086-0.070254 0.70447-0.14051 1.4089-0.21289 2.1348-0.42587 3.6966-1.0137 6.3911-2.541 9.8457-1.6631 4.0104-1.706 6.8897-1.5586 11.207 0.2091 6.9977 0.2091 6.9977-0.875 10.25-0.14573 1.4797-0.24663 2.964-0.31641 4.4492-0.041895 0.84756-0.083789 1.6951-0.12695 2.5684-0.058975 1.3216-0.058975 1.3216-0.11914 2.6699-0.043184 0.89268-0.086367 1.7854-0.13086 2.7051-0.10599 2.2023-0.20806 4.4048-0.30664 6.6074 0.99 0.33 1.98 0.66 3 1 0.26812-0.92812 0.53625-1.8562 0.8125-2.8125 1.1875-3.1875 1.1875-3.1875 2.5117-4.4883 2.38-2.4133 3.9257-5.1772 5.6758-8.0742 0.68062-1.1215 1.3612-2.243 2.0625-3.3984 0.63938-1.0648 1.2788-2.1295 1.9375-3.2266 0.55688-0.89977 1.1138-1.7995 1.6875-2.7266 1.4377-2.3148 1.4377-2.3148 2.3125-5.2734 1-3 1-3 2.5-5.375 1.9789-3.4631 2.6427-6.7343 3.5-10.625h2c0.12979-0.70544 0.25958-1.4109 0.39331-2.1377 0.62504-2.9489 1.4332-5.7765 2.3137-8.6592 0.33773-1.1166 0.67547-2.2331 1.0234-3.3835 0.35707-1.178 0.71414-2.3559 1.082-3.5696 3.1076-10.347 5.9229-20.687 8.1875-31.25z" fill="#5B739D"/>
<path transform="translate(788,280)" d="m0 0h1c0.01213 1.0395 0.01213 1.0395 0.024506 2.1-0.52033 94.238-0.52033 94.238 14.374 186.85 0.56671 2.8777 0.63532 4.3562-0.39844 7.0547v-3h-2c-1.7569-6.5707-2.9489-13.168-4.0625-19.875-0.34213-2.0604-0.68704-4.1203-1.0352-6.1797-0.14961-0.90218-0.29922-1.8044-0.45337-2.7339-0.35493-2.2403-0.35493-2.2403-1.449-4.2114-0.20772-1.5563-0.36717-3.1192-0.5-4.6836-0.0825-0.92748-0.165-1.855-0.25-2.8105-0.0825-0.97131-0.165-1.9426-0.25-2.9434-0.16336-1.9156-0.32989-3.831-0.5-5.7461-0.072188-0.85135-0.14438-1.7027-0.21875-2.5798-0.2282-2.4031-0.2282-2.4031-1.2812-5.2366-3.9241-31.41-3.1479-63.551-3.0687-95.145 0.010449-4.6275 0.014843-9.255 0.019836-13.882 0.01055-8.9909 0.027489-17.982 0.048828-26.973z" fill="#78849F"/>
<path transform="translate(811,424)" d="m0 0h1c0.74601 10.538 1.1594 21.073 1.4648 31.633 0.019292 0.66026 0.038584 1.3205 0.05846 2.0008 0.18157 6.216 0.35931 12.432 0.52626 18.649 0.38845 14.375 0.87838 28.697 2.2457 43.02 0.75232 7.8812 1.1241 15.721 1.3298 23.635 0.038672 1.2794 0.077344 2.5588 0.11719 3.877 0.091737 3.0617 0.17775 6.1235 0.25781 9.1855h-2v7h-1l-1-9h2l-1-2c-0.16948-1.4871-0.28528-2.9805-0.37305-4.4746-0.056759-0.92857-0.11352-1.8571-0.172-2.8138-0.057323-1.0082-0.11465-2.0165-0.17371-3.0553-0.062802-1.0389-0.1256-2.0777-0.19031-3.1481-0.20109-3.3358-0.39636-6.672-0.59094-10.008-0.19539-3.3076-0.39206-6.6151-0.59094-9.9225-0.12356-2.059-0.24502-4.1182-0.36401-6.1775-0.26086-4.3835-0.57029-8.7335-1.0839-13.095-0.74618-7.1767-0.58449-14.388-0.55884-21.594 0.0018689-1.5551 0.0032906-3.1102 0.0042877-4.6654 0.0037882-4.0605 0.013586-8.121 0.024704-12.182 0.010294-4.1565 0.014811-8.313 0.019836-12.469 0.010672-8.1315 0.027703-16.263 0.048828-24.395z" fill="#F7741B"/>
<path transform="translate(677,310)" d="m0 0c2.2294 0.14179 4.4585 0.2886 6.6875 0.4375 1.2414 0.081211 2.4827 0.16242 3.7617 0.24609 5.9139 0.52698 8.5071 0.91597 12.551 5.3164 1.1228 0.87785 2.248 1.7526 3.375 2.625 14.809 12.653 16.687 36.38 18.372 54.513 0.22454 2.087 0.22454 2.087 1.2527 4.8618 0.080662 1.4812 0.10761 2.9658 0.097656 4.4492-0.0032227 0.84756-0.0064453 1.6951-0.0097656 2.5684-0.012568 1.3216-0.012568 1.3216-0.025391 2.6699-0.0045117 0.89268-0.0090234 1.7854-0.013672 2.7051-0.011778 2.2025-0.028226 4.4049-0.048828 6.6074-4.4794-6.7191-4.1336-16.115-4-24-0.16666-1.4609-0.3542-2.9195-0.5625-4.375-0.4375-3.625-0.4375-3.625 0.5625-5.625h-2c-0.056074-1.251-0.056074-1.251-0.11328-2.5273-0.36812-6.3014-0.9528-11.808-3.3633-17.668-0.52344-1.8047-0.52344-1.8047 0.47656-4.8047h-2c-0.26555-0.78246-0.53109-1.5649-0.80469-2.3711-0.3532-1.0119-0.70641-2.0238-1.0703-3.0664-0.52207-1.514-0.52207-1.514-1.0547-3.0586-0.81086-2.6436-0.81086-2.6436-3.0703-3.5039-1-1.6667-2-3.3333-3-5l-2-1v-2l-5-1v-2c-4.2914-0.77611-8.5258-1.2518-12.875-1.5625-1.1524-0.083789-2.3048-0.16758-3.4922-0.25391-1.3032-0.090879-1.3032-0.090879-2.6328-0.18359v-3z" fill="#86CEEF"/>
<path transform="translate(767.38 272.94)" d="m0 0c1.5333 0.0067676 1.5333 0.0067676 3.0977 0.013672 2.5092 0.011725 5.0182 0.028136 7.5273 0.048828v1c-5.7698 1.669-10.707 2.2138-16.688 2-4.8395-0.17025-8.883-0.23659-13.312 2 0.072188 1.2117 0.14438 2.4234 0.21875 3.6719 0.094038 1.6927 0.18777 3.3854 0.28125 5.0781 0.047695 0.78633 0.095391 1.5727 0.14453 2.3828 1.032 19.165 0.22819 38.444-0.14453 57.617-0.048349 2.5586-0.096527 5.1172-0.14453 7.6758-0.11653 6.1914-0.23514 12.383-0.35547 18.574h-1l-1-57h-1c-0.12352-5.4992-0.2143-10.998-0.27466-16.498-0.025158-1.8712-0.059288-3.7424-0.10254-5.6133-0.0606-2.6885-0.088999-5.3757-0.11108-8.0647-0.025806-0.83759-0.051613-1.6752-0.078201-2.5382-0.0011444-2.3654-0.0011444-2.3654 0.56648-6.2861 6.1871-5.2487 14.726-4.1267 22.375-4.0625z" fill="#9AADC6"/>
<path transform="translate(730,481)" d="m0 0 2 4h-2c-0.10957 1.0738-0.21914 2.1476-0.33203 3.2539-0.15958 1.4363-0.31977 2.8725-0.48047 4.3086-0.070254 0.70447-0.14051 1.4089-0.21289 2.1348-0.42587 3.6966-1.0137 6.3911-2.541 9.8457-1.6631 4.0104-1.706 6.8897-1.5586 11.207 0.2091 6.9977 0.2091 6.9977-0.875 10.25-0.14573 1.4797-0.24663 2.964-0.31641 4.4492-0.041895 0.84756-0.083789 1.6951-0.12695 2.5684-0.058975 1.3216-0.058975 1.3216-0.11914 2.6699-0.043184 0.89268-0.086367 1.7854-0.13086 2.7051-0.10599 2.2023-0.20806 4.4048-0.30664 6.6074 0.99 0.33 1.98 0.66 3 1l1-3 2 1c0 2 0 2-2.375 4.4375l-2.625 2.5625-2 3h-2c-0.23974-10.337 0.42267-20.63 1.125-30.938 0.061694-0.91137 0.12339-1.8227 0.18695-2.7617 2.3234-32.936 2.3234-32.936 8.688-39.301z" fill="#637BA7"/>
<path transform="translate(744,392)" d="m0 0h1c0.3173 12.001-0.56483 23.446-2.3125 35.312-0.23247 1.6324-0.46407 3.2649-0.69482 4.8975-0.45094 3.176-0.90873 6.3508-1.373 9.5249-0.52509 3.5948-1.0254 7.1925-1.5142 10.792-0.24275 1.741-0.48616 3.4819-0.73047 5.2227-0.098372 0.73517-0.19674 1.4703-0.2981 2.2278-1.0251 6.9891-3.3509 13.522-6.0769 20.022h-1c0.6666-7.5575 2.184-14.785 3.8125-22.188 2.2441-10.52 4.0876-21.023 5.5-31.688 0.15896-1.1913 0.31792-2.3827 0.48169-3.6101 0.93823-7.4094 1.5412-14.788 1.9487-22.242 0.22333-2.8433 0.62384-5.4967 1.2571-8.2729z" fill="#6481AA"/>
<path transform="translate(1044,648)" d="m0 0h1c0.9242 6.3681 0.95994 11.796-0.125 18.125-0.13688 0.82186-0.27376 1.6437-0.41479 2.4905-3.0639 17.224-9.3396 35.206-23.745 46.115-5.0463 3.2695-5.0463 3.2695-7.7148 3.2695v-3l3.1875-1.1875c8.9619-3.8769 14.845-14.239 18.812-22.812 1.544-4.2802 2.797-8.6132 4-13 0.27844-0.94617 0.55688-1.8923 0.84375-2.8672 2.4672-8.9067 3.29-17.961 4.1562-27.133z" fill="#FA6B16"/>
<path transform="translate(804,476)" d="m0 0c1.7909 2.6864 2.5745 4.4653 3.4727 7.4922 0.25975 0.87012 0.51949 1.7402 0.78711 2.6367 0.2649 0.90621 0.5298 1.8124 0.80273 2.7461 0.26877 0.89848 0.53754 1.797 0.81445 2.7227 1.9804 6.6869 3.2387 12.844 3.6582 19.836 0.042977 0.71439 0.085954 1.4288 0.13023 2.1648 0.089931 1.5119 0.17807 3.024 0.26454 4.5361 0.13037 2.2648 0.26875 4.529 0.40796 6.7932 0.53784 9.0386 0.7842 18.015 0.66211 27.072h-1c-0.055349-0.72179-0.1107-1.4436-0.16772-2.1873-0.25189-3.2505-0.51074-6.5003-0.76978-9.7502-0.087012-1.1363-0.17402-2.2726-0.26367-3.4434-0.087012-1.0796-0.17402-2.1592-0.26367-3.2715-0.11783-1.5003-0.11783-1.5003-0.23804-3.031-0.051847-2.2752-0.051847-2.2752-1.2971-3.3167 0.090316-2.3569 0.24688-4.7115 0.4375-7.0625 0.10184-1.2904 0.20367-2.5807 0.30859-3.9102 0.12568-1.4985 0.12568-1.4985 0.25391-3.0273h-2v-9h-2c-0.20496-1.1086-0.40992-2.2172-0.62109-3.3594-0.27207-1.4636-0.54421-2.9271-0.81641-4.3906-0.13471-0.72961-0.26941-1.4592-0.4082-2.2109-0.75689-4.0938-0.75689-4.0938-1.6953-8.1484-0.79538-3.2763-0.51495-6.5328-0.45898-9.8906z" fill="#5F78A5"/>
<path transform="translate(490,616)" d="m0 0h1c0.025056 0.92861 0.050112 1.8572 0.075928 2.814 0.095052 3.4404 0.19429 6.8806 0.29639 10.321 0.043351 1.4899 0.085026 2.9798 0.125 4.4697 0.057698 2.1398 0.12139 4.2794 0.18628 6.4189 0.036658 1.2883 0.073315 2.5765 0.11108 3.9038 6.2902e-4 2.9855 6.2902e-4 2.9855 1.2053 5.0728 0.0199 1.3958-0.0072804 2.7926-0.0625 4.1875-0.054848 4.2576 0.68427 7.7589 2.0625 11.812 1 3 1 3 0.4375 4.8125-0.62959 3.1479 0.48299 5.1762 1.5625 8.1875 0.33 1.4336 0.64128 2.8716 0.9375 4.3125 0.99783 4.6938 2.4602 9.169 4.0625 13.688h2l-1 4c-11.399-10.11-12.314-33.765-13.186-48.04-0.17104-3.4235-0.30984-6.8469-0.43945-10.272-0.051562-1.1466-0.10312-2.2932-0.15625-3.4746-0.28822-7.4894-0.024893-14.762 0.78125-22.213z" fill="#2877D3"/>
<path transform="translate(1072,1023)" d="m0 0v1h-142v-1c14.38-0.15554 28.76-0.30341 43.141-0.44296 6.6804-0.064961 13.361-0.13236 20.041-0.20523 6.471-0.070497 12.942-0.13455 19.413-0.1945 2.4442-0.023707 4.8884-0.049569 7.3325-0.077839 17.39-0.19911 34.699 0.15654 52.073 0.92053z" fill="#7D726F"/>
<path transform="translate(816,556)" d="m0 0 2 1c0.41064 1.7432 0.41064 1.7432 0.63281 4.0156 0.08395 0.8337 0.1679 1.6674 0.25439 2.5264 0.078472 0.89364 0.15694 1.7873 0.23779 2.708 0.084917 0.90138 0.16983 1.8028 0.25732 2.7314 0.62298 7.027 0.84941 13.964 0.61768 21.019h2l-0.125 3.5c-0.01588 3.0171 0.3113 5.4935 1.1875 8.375 1.3643 4.7895 0.67434 9.2658-0.0625 14.125h-1c-3.9311-20.134-6.4138-39.469-6-60z" fill="#FB5912"/>
<path transform="translate(719,554)" d="m0 0h2c-0.90547 13.139-2.1655 26.198-3.9375 39.25-0.15759 1.1875-0.31518 2.3749-0.47754 3.5984-2.8607 20.427-2.8607 20.427-6.585 24.152l-2 3c0.39743-3.3781 0.75453-6.408 2.0625-9.5625 1.117-2.4689 1.117-2.4689 0.9375-5.4375 0-3.2499 0.76815-5.0291 2-8 0.38749-2.325 0.71758-4.66 1-7 0.55494-3.9545 1.1336-7.9053 1.7188-11.855 1.3784-9.3695 2.7133-18.685 3.2812-28.145z" fill="#3981D2"/>
<path transform="translate(677,311)" d="m0 0c-2.4702 2.9902-4.2455 3.347-8 4-5.5018 1.634-10.756 3.6806-16 6-0.79793 0.29777-1.5959 0.59555-2.418 0.90234-2.6428 1.1235-4.7906 2.4602-7.1445 4.0977-2.1103 1.4629-4.1129 2.8431-6.4258 3.9609-3.3382 1.7242-6.0844 4.2145-8.9883 6.5781-2.0234 1.4609-2.0234 1.4609-4.0234 1.4609v2c-0.99-0.33-1.98-0.66-3-1 12.159-13.375 37.356-28.518 56-28z" fill="#92DBF4"/>
<path transform="translate(773,461)" d="m0 0c1.9666 2.9499 2.6805 4.9913 3.5859 8.375 0.29133 1.0686 0.58266 2.1373 0.88281 3.2383 0.29906 1.1176 0.59812 2.2352 0.90625 3.3867 2.7998 10.444 6.0895 20.515 10.25 30.5 0.40477 0.97969 0.80953 1.9594 1.2266 2.9688 1.1397 2.693 1.1397 2.693 3.1484 5.5312-0.375 2.1875-0.375 2.1875-1 4-3.4829-4.3499-5.2403-9.0317-7.25-14.188-0.39115-1.0022-0.7823-2.0043-1.1853-3.0369-2.9202-7.6771-5.3972-15.434-7.6272-23.338-0.29874-1.0515-0.59748-2.1029-0.90527-3.1863-1.3162-4.8392-2.4392-9.186-2.0322-14.251z" fill="#60749B"/>
<path transform="translate(862,311)" d="m0 0c-2.5324 2.4626-3.6886 2.9956-7.2852 3.0469-1.8698-0.14695-1.8698-0.14695-3.7773-0.29688-8.0161-0.34742-12.817 2.2809-18.938 7.25-0.92555 0.73734-1.8511 1.4747-2.8047 2.2344-0.72445 0.58266-1.4489 1.1653-2.1953 1.7656l-2-2c9.5303-10.95 22.682-15.818 37-12z" fill="#FAAC30"/>
<path transform="translate(534,445)" d="m0 0 1 2c-1.1094 2.5039-1.1094 2.5039-2.75 5.5625-2.3015 4.4383-4.138 8.7072-5.6016 13.477-0.92746 2.8047-2.2824 5.3476-3.6484 7.9609-1.3291 3.0736-2.3989 6.1947-3.4375 9.375-1.3102 3.9904-2.8717 7.7822-4.5625 11.625l-1 3-2-2c3.3361-10.234 7.2336-20.144 11.562-30 0.688-1.5738 0.688-1.5738 1.3899-3.1794 2.7216-6.1266 5.6687-12.03 9.0476-17.821z" fill="#65BAEA"/>
<path transform="translate(1073,1023)" d="m0 0h98v1h-98v-1z" fill="#7E7A79"/>
<path transform="translate(558,405)" d="m0 0 1 3c-1.2866 1.703-2.6282 3.3649-4 5-0.98689 1.8706-1.9234 3.7685-2.8125 5.6875-1.9611 4.0456-4.033 7.6853-6.6875 11.312-3.8911 5.321-6.7069 11.046-9.5 17l-2-3c7.3886-13.471 14.983-26.55 24-39z" fill="#74C7EF"/>
<path transform="translate(584,372)" d="m0 0 2 1c-6.6681 9.462-13.873 18.294-21.5 27-2.0017 2.402-3.211 4.2311-4.5 7-0.6333-1.7996-0.6333-1.7996-1-4 1.6263-2.4454 3.2383-4.5852 5.125-6.8125 0.98332-1.1927 1.9651-2.3867 2.9453-3.582 0.48759-0.58733 0.97518-1.1747 1.4775-1.7798 1.4889-1.8719 2.8428-3.8022 4.1943-5.7749 0.74508-1.0068 1.4902-2.0135 2.2578-3.0508h2c0.22688-0.53625 0.45375-1.0725 0.6875-1.625 1.7463-3.16 3.9528-5.6427 6.3125-8.375z" fill="#80D0F2"/>
<path transform="translate(794,432)" d="m0 0 2 1c0.63843 2.4016 0.63843 2.4016 1.1836 5.582 0.20561 1.1608 0.41121 2.3216 0.62305 3.5176 0.20818 1.2253 0.41637 2.4505 0.63086 3.7129 1.3827 8.0037 2.8722 15.852 5.094 23.671 0.48166 2.5875 0.32499 4.0577-0.53149 6.5168v-3h-2c-1.7569-6.5707-2.9489-13.168-4.0625-19.875-0.34213-2.0604-0.68704-4.1203-1.0352-6.1797-0.14961-0.90218-0.29922-1.8044-0.45337-2.7339-0.35493-2.2403-0.35493-2.2403-1.449-4.2114-0.13415-2.6724-0.043185-5.3225 0-8z" fill="#737892"/>
<path transform="translate(718,356)" d="m0 0c2.4121 3.6182 2.632 6.7926 3.0625 11 0.56776 5.5762 0.56776 5.5762 1.9375 11 0.080662 1.4812 0.10761 2.9658 0.097656 4.4492-0.004834 1.2713-0.004834 1.2713-0.0097656 2.5684-0.0083789 0.88107-0.016758 1.7621-0.025391 2.6699-0.0045117 0.89268-0.0090234 1.7854-0.013672 2.7051-0.011778 2.2025-0.028226 4.4049-0.048828 6.6074-4.4809-6.7214-4.1293-16.113-4-24-0.22131-2.535-0.49978-5.0605-0.77734-7.5898-0.29162-3.1566-0.29152-6.2425-0.22266-9.4102z" fill="#72BEE9"/>
<path transform="translate(1044,616)" d="m0 0h2c0.060586 0.81984 0.12117 1.6397 0.18359 2.4844 0.083789 1.0777 0.16758 2.1553 0.25391 3.2656 0.12182 1.601 0.12182 1.601 0.24609 3.2344 0.25731 2.4524 0.63453 4.6548 1.3164 7.0156h-2v23h-1c-0.80984-4.9515-1.1179-9.6495-1.0977-14.684 0.001415-0.70037 0.0028299-1.4007 0.0042877-2.1223 0.0055438-2.2106 0.018085-4.421 0.030869-6.6316 0.0050223-1.5098 0.0095839-3.0195 0.013672-4.5293 0.010954-3.6778 0.028179-7.3555 0.048828-11.033z" fill="#FD801C"/>
<path transform="translate(814,528)" d="m0 0h2c0.98555 5.9713 1.3106 11.895 1.5625 17.938 0.064775 1.455 0.064775 1.455 0.13086 2.9395 0.10526 2.3742 0.2074 4.7486 0.30664 7.123h-2v7h-1l-1-9h2l-1-2c-0.86837-7.9761-1.1663-15.981-1-24z" fill="#EC7128"/>
<path transform="translate(677,310)" d="m0 0c2.2294 0.14179 4.4585 0.2886 6.6875 0.4375 1.2414 0.081211 2.4827 0.16242 3.7617 0.24609 5.9139 0.52698 8.5071 0.91597 12.551 5.3164 2.3016 2.0375 4.6495 4.0192 7 6l-1 4-1.375-2.4375c-1.3723-2.6511-1.3723-2.6511-3.625-3.5625v-2l-5-1v-2c-4.2914-0.77611-8.5258-1.2518-12.875-1.5625-1.1524-0.083789-2.3048-0.16758-3.4922-0.25391-1.3032-0.090879-1.3032-0.090879-2.6328-0.18359v-3z" fill="#94D9F0"/>
<path transform="translate(812,512)" d="m0 0h1c2.3878 28.152 2.3878 28.152 2 40h-1c-0.083024-1.0827-0.083024-1.0827-0.16772-2.1873-0.25189-3.2505-0.51074-6.5003-0.76978-9.7502-0.087012-1.1363-0.17402-2.2726-0.26367-3.4434-0.087012-1.0796-0.17402-2.1592-0.26367-3.2715-0.078552-1.0002-0.1571-2.0005-0.23804-3.031-0.051847-2.2752-0.051847-2.2752-1.2971-3.3167 0.090865-2.5354 0.23709-5.0355 0.4375-7.5625 0.052207-0.71092 0.10441-1.4218 0.1582-2.1543 0.13004-1.7614 0.26657-3.5224 0.4043-5.2832z" fill="#4472B2"/>
<path transform="translate(490,616)" d="m0 0h1c0.025056 0.92861 0.050112 1.8572 0.075928 2.814 0.095052 3.4404 0.19429 6.8806 0.29639 10.321 0.043351 1.4899 0.085026 2.9798 0.125 4.4697 0.057698 2.1398 0.12139 4.2794 0.18628 6.4189 0.036658 1.2883 0.073315 2.5765 0.11108 3.9038 6.2902e-4 2.9855 6.2902e-4 2.9855 1.2053 5.0728-0.60578 2.0193-1.2692 4.0225-2 6h-1c-0.19996-4.2495-0.38262-8.4996-0.5625-12.75-0.056074-1.1872-0.11215-2.3745-0.16992-3.5977-0.31323-7.6429-0.10578-15.048 0.73242-22.652z" fill="#2E80D5"/>
<path transform="translate(767,432)" d="m0 0h2c1.1578 3.4733 1.0687 6.3607 1 10l-2-1-2 9h-1c0.14054-2.6254 0.28719-5.2502 0.4375-7.875 0.039316-0.74637 0.078633-1.4927 0.11914-2.2617 0.33008-5.6367 0.33008-5.6367 1.4434-7.8633z" fill="#6A7FA3"/>
<path transform="translate(713,604)" d="m0 0h1c0.22575 5.418-0.41289 9.7978-2 15l-2 2-2 3c0.39743-3.3781 0.75453-6.408 2.0625-9.5625 1.1282-2.4981 1.1282-2.4981 0.9375-5.625 0-2.8125 0-2.8125 2-4.8125z" fill="#2B7CD9"/>
<path transform="translate(720,543)" d="m0 0 2 4c1.9849-0.26676 1.9849-0.26676 4-1l1-3 2 1c0 2 0 2-2.375 4.4375l-2.625 2.5625-2 3h-2v-11z" fill="#5777AB"/>
<path transform="translate(737,456)" d="m0 0h1c-0.5261 8.6897-2.6458 16.001-6 24h-1c1.1093-10.833 1.1093-10.833 2-14l2-1c0.68729-2.1185 0.68729-2.1185 1.125-4.5625 0.16758-0.82629 0.33516-1.6526 0.50781-2.5039 0.12117-0.63809 0.24234-1.2762 0.36719-1.9336z" fill="#7292BC"/>
<path transform="translate(804,476)" d="m0 0c1.7355 2.6032 2.6518 4.5227 3.625 7.4375 0.26039 0.76184 0.52078 1.5237 0.78906 2.3086 0.58594 2.2539 0.58594 2.2539 0.58594 6.2539-0.99-0.33-1.98-0.66-3-1-1.9919-5.1369-2.1921-9.5245-2-15z" fill="#7A778E"/>
<path transform="translate(1026,510)" d="m0 0h2c0.67185 2.1025 1.3373 4.2071 2 6.3125 0.37125 1.1718 0.7425 2.3435 1.125 3.5508 0.875 3.1367 0.875 3.1367 0.875 6.1367h-2c-0.67413-1.9141-1.339-3.8314-2-5.75l-1.125-3.2344c-0.875-3.0156-0.875-3.0156-0.875-7.0156z" fill="#FCA62A"/>
<path transform="translate(816,342)" d="m0 0 1 2h2c-0.58594 6.1523-0.58594 6.1523-1 8l-2 1c-0.65772 3.0293-0.65772 3.0293-1 6h-1c0.14152-2.0836 0.28838-4.1669 0.4375-6.25 0.081211-1.1602 0.16242-2.3203 0.24609-3.5156 0.24888-2.5441 0.59756-4.7939 1.3164-7.2344z" fill="#F9A033"/>
<path transform="translate(816,535)" d="m0 0h1l1 21h-2v7h-1l-1-9h2v-19z" fill="#F06521"/>
<path transform="translate(1418,1023)" d="m0 0h32v1h-32v-1z" fill="#9D9E9E"/>
<path transform="translate(809,499)" d="m0 0 2 3 2 2c0.26992 2.6884 0.087374 5.2914 0 8-0.99 0.33-1.98 0.66-3 1v-9h-2l1-5z" fill="#6B799E"/>
<path transform="translate(1244,1023)" d="m0 0h29v1h-29v-1z" fill="#858484"/>
<path transform="translate(816,568)" d="m0 0 3 2c0.6875 3.625 0.6875 3.625 1 7h-2v9h-1c-0.60965-6.0203-1.1345-11.947-1-18z" fill="#F46728"/>
<path transform="translate(1390,1023)" d="m0 0h27v1h-27v-1z" fill="#989899"/>
<path transform="translate(718,356)" d="m0 0c2.0436 3.0653 2.3866 4.3835 2.75 7.9375 0.097969 0.85465 0.19594 1.7093 0.29688 2.5898-0.051381 2.7103-0.66054 4.1745-2.0469 6.4727-0.6417-5.6951-1.1246-11.267-1-17z" fill="#7AC4EC"/>
<path transform="translate(752,495)" d="m0 0h2c-0.42219 1.6498-0.86324 3.2948-1.3125 4.9375-0.24363 0.91652-0.48727 1.833-0.73828 2.7773-0.31324 0.7541-0.62648 1.5082-0.94922 2.2852-0.99 0.33-1.98 0.66-3 1l1-6h2l1-5z" fill="#5E78A3"/>
<path transform="translate(929,1023)" d="m0 0v1h-23v-1c2.8955-0.19544 5.7911-0.38161 8.6875-0.5625 0.81662-0.056074 1.6332-0.11215 2.4746-0.16992 4.133-0.25099 7.7961-0.37886 11.838 0.73242z" fill="#7B6F6A"/>
<path transform="translate(1023,497)" d="m0 0c2.4582 3.6873 3.0124 6.697 4 11-0.99 0.33-1.98 0.66-3 1-0.36237-1.6232-0.71465-3.2486-1.0625-4.875-0.19723-0.90492-0.39445-1.8098-0.59766-2.7422-0.33984-2.3828-0.33984-2.3828 0.66016-4.3828z" fill="#FBA92E"/>
<path transform="translate(1011,467)" d="m0 0c2.2283 2.2283 2.6924 3.6576 3.625 6.625 0.26039 0.81727 0.52078 1.6345 0.78906 2.4766 0.19336 0.62648 0.38672 1.253 0.58594 1.8984l-2 1c-0.69937-1.4318-1.3841-2.8707-2.0625-4.3125-0.38285-0.80051-0.7657-1.601-1.1602-2.4258-0.77734-2.2617-0.77734-2.2617 0.22266-5.2617z" fill="#FDAB2D"/>
<path transform="translate(1535,1022)" d="m0 0 1 2h-22v-1l21-1z" fill="#AEAEAE"/>
<path transform="translate(1172,1023)" d="m0 0h22v1h-22v-1z" fill="#7F7D7E"/>
<path transform="translate(818,1023)" d="m0 0h22v1h-22v-1z" fill="#766F6C"/>
<path transform="translate(619,1023)" d="m0 0h22v1h-22v-1z" fill="#727375"/>
<path transform="translate(1492,1023)" d="m0 0h21v1h-21v-1z" fill="#AAAAAB"/>
<path transform="translate(1469,1023)" d="m0 0h21v1h-21v-1z" fill="#A5A5A6"/>
<path transform="translate(742,1023)" d="m0 0h19v1h-19v-1z" fill="#726F6F"/>
<path transform="translate(733,469)" d="m0 0h1c-0.1141 1.4592-0.24166 2.9174-0.375 4.375-0.069609 0.81211-0.13922 1.6242-0.21094 2.4609-0.41406 2.1641-0.41406 2.1641-2.4141 4.1641 0.14108-1.4588 0.28802-2.917 0.4375-4.375 0.081211-0.81211 0.16242-1.6242 0.24609-2.4609 0.31641-2.1641 0.31641-2.1641 1.3164-4.1641z" fill="#5D7BA8"/>
<path transform="translate(1274,1023)" d="m0 0h18v1h-18v-1z" fill="#878787"/>
<path transform="translate(762,1023)" d="m0 0h18v1h-18v-1z" fill="#716E6E"/>
<path transform="translate(1039,558)" d="m0 0h1l1 10h-2c-1.125-6.625-1.125-6.625 0-10z" fill="#FB9C2B"/>
<path transform="translate(804,539)" d="m0 0c3.923 2.3538 4.8386 4.6446 6 9-5.5714-5.1429-5.5714-5.1429-6-9z" fill="#746B85"/>
<path transform="translate(1032,527)" d="m0 0c1.8839 3.2655 2.4929 6.2811 3 10l-2 1c-1.1757-3.6741-1.0737-7.1693-1-11z" fill="#FAA42B"/>
<path transform="translate(842,1023)" d="m0 0h16v1h-16v-1z" fill="#776E6B"/>
<path transform="translate(1451,1023)" d="m0 0h15v1h-15v-1z" fill="#A1A1A3"/>
<path transform="translate(1354,1023)" d="m0 0h15v1h-15v-1z" fill="#929293"/>
<path transform="translate(890,1023)" d="m0 0h14v1h-14v-1z" fill="#7A6F6B"/>
<path transform="translate(1340,1023)" d="m0 0h13v1h-13v-1z" fill="#8F8F90"/>
<path transform="translate(1204,1023)" d="m0 0h13v1h-13v-1z" fill="#817F80"/>
<path transform="translate(668,1023)" d="m0 0h13v1h-13v-1z" fill="#717173"/>
<path transform="translate(781,1023)" d="m0 0h12v1h-12v-1z" fill="#726E6D"/>
<path transform="translate(1229,1023)" d="m0 0h11v1h-11v-1z" fill="#838283"/>
<path transform="translate(864,1023)" d="m0 0h11v1h-11v-1z" fill="#786E6A"/>
<path transform="translate(730,1023)" d="m0 0h11v1h-11v-1z" fill="#727070"/>
<path transform="translate(700,1023)" d="m0 0h11v1h-11v-1z" fill="#727172"/>
<path transform="translate(606,1023)" d="m0 0h11v1h-11v-1z" fill="#757577"/>
<path transform="translate(1535,419)" d="m0 0h1v11h-1v-11z" fill="#9D9C9C"/>
<path transform="translate(1326,1023)" d="m0 0h10v1h-10v-1z" fill="#8D8D8E"/>
<path transform="translate(1535,347)" d="m0 0h1v10h-1v-10z" fill="#9F9F9E"/>
<path transform="translate(1379,1023)" d="m0 0h8v1h-8v-1z" fill="#959596"/>
<path transform="translate(1370,1023)" d="m0 0h8v1h-8v-1z" fill="#949394"/>
<path transform="translate(1535,376)" d="m0 0h1v8h-1v-8z" fill="#9E9E9E"/>
<path transform="translate(882,1023)" d="m0 0h7v1h-7v-1z" fill="#7A6F6B"/>
<path transform="translate(797,1023)" d="m0 0h7v1h-7v-1z" fill="#736E6D"/>
<path transform="translate(650,1023)" d="m0 0h7v1h-7v-1z" fill="#717275"/>
<path transform="translate(1535,699)" d="m0 0h1v7h-1v-7z" fill="#9B9B9B"/>
<path transform="translate(1535,411)" d="m0 0h1v7h-1v-7z" fill="#9D9D9D"/>
<path transform="translate(1535,275)" d="m0 0h1v7h-1v-7z" fill="#A0A0A0"/>
<path transform="translate(1535,171)" d="m0 0h1v7h-1v-7z" fill="#A7A7A7"/>
<path transform="translate(1535,105)" d="m0 0h1v7h-1v-7z" fill="#AFAFAE"/>
<path transform="translate(1316,1023)" d="m0 0h5v1h-5v-1z" fill="#8C8B8C"/>
<path transform="translate(876,1023)" d="m0 0h5v1h-5v-1z" fill="#7A706C"/>
<path transform="translate(812,1023)" d="m0 0h5v1h-5v-1z" fill="#736E6D"/>
<path transform="translate(724,1023)" d="m0 0h5v1h-5v-1z" fill="#727071"/>
<path transform="translate(716,1023)" d="m0 0h5v1h-5v-1z" fill="#707071"/>
<path transform="translate(684,1023)" d="m0 0h5v1h-5v-1z" fill="#737274"/>
<path transform="translate(1535,953)" d="m0 0h1v5h-1v-5z" fill="#A9A9A9"/>
<path transform="translate(1535,235)" d="m0 0h1v5h-1v-5z" fill="#A2A2A2"/>
<path transform="translate(1535,163)" d="m0 0h1v5h-1v-5z" fill="#A8A8A8"/>
<path transform="translate(1535,83)" d="m0 0h1v5h-1v-5z" fill="#B3B2B2"/>
<path transform="translate(1301,1023)" d="m0 0 4 1z" fill="#8A8A89"/>
<path transform="translate(1293,1023)" d="m0 0 4 1z" fill="#888"/>
<path transform="translate(1221,1023)" d="m0 0 4 1z" fill="#828181"/>
<path transform="translate(691,1023)" d="m0 0 4 1z" fill="#717172"/>
<path transform="translate(658,1023)" d="m0 0 4 1z" fill="#737274"/>
<path transform="translate(513,717)" d="m0 0h3l-1 2-2-2z" fill="#2D74C9"/>
<path transform="translate(1535,688)" d="m0 0 1 4z" fill="#9B9B9A"/>
<path transform="translate(1044,578)" d="m0 0 1 4z" fill="#F39A31"/>
<path transform="translate(725,487)" d="m0 0 1 4z" fill="#659DCF"/>
<path transform="translate(998,434)" d="m0 0 1 4z" fill="#F4B33A"/>
<path transform="translate(1535,319)" d="m0 0 1 4z" fill="#A0A09E"/>
<path transform="translate(852,308)" d="m0 0 4 1z" fill="#EDB549"/>
<path transform="translate(1535,224)" d="m0 0 1 4z" fill="#A3A3A3"/>
<path transform="translate(1310,1023)" d="m0 0c3 1 3 1 3 1z" fill="#8A8B8B"/>
<path transform="translate(1197,1023)" d="m0 0c3 1 3 1 3 1z" fill="#807F7F"/>
<path transform="translate(860,1023)" d="m0 0c3 1 3 1 3 1z" fill="#776D6A"/>
<path transform="translate(805,1023)" d="m0 0c3 1 3 1 3 1z" fill="#746F6D"/>
<path transform="translate(644,1023)" d="m0 0c3 1 3 1 3 1z" fill="#727274"/>
<path transform="translate(1044,674)" d="m0 0 2 1-2 1v-2z" fill="#ED7D2A"/>
<path transform="translate(831,314)" d="m0 0 2 1-2 1v-2z" fill="#E9B054"/>
<path transform="translate(809,1023)" d="m0 0 2 1z" fill="#746E6C"/>
<path transform="translate(663,1023)" d="m0 0 2 1z" fill="#727172"/>
<path transform="translate(948,1021)" d="m0 0 2 1z" fill="#7A6D69"/>
<path transform="translate(948,997)" d="m0 0 2 1z" fill="#746662"/>
<path transform="translate(1090,979)" d="m0 0 2 1z" fill="#6E6867"/>
<path transform="translate(1090,955)" d="m0 0 2 1z" fill="#665F5F"/>
<path transform="translate(1090,931)" d="m0 0 2 1z" fill="#615856"/>
<path transform="translate(1090,699)" d="m0 0 2 1z" fill="#AF6938"/>
<path transform="translate(1090,531)" d="m0 0 2 1z" fill="#BE8639"/>
<path transform="translate(752,503)" d="m0 0 2 1z" fill="#7089B1"/>
<path transform="translate(1090,387)" d="m0 0 2 1z" fill="#8D6D39"/>
<path transform="translate(727,369)" d="m0 0 2 1z" fill="#88BBD8"/>
<path transform="translate(588,364)" d="m0 0 2 1z" fill="#92D3E8"/>
<path transform="translate(1090,355)" d="m0 0 2 1z" fill="#80673A"/>
<path transform="translate(933,352)" d="m0 0 2 1z" fill="#F4BA3B"/>
<path transform="translate(660,313)" d="m0 0 2 1z" fill="#A2D9E8"/>
<path transform="translate(672,309)" d="m0 0 2 1z" fill="#A0D8E9"/>
<path transform="translate(752,272)" d="m0 0 2 1z" fill="#9AA9B8"/>
<path transform="translate(1090,251)" d="m0 0 2 1z" fill="#615443"/>
<path transform="translate(1090,179)" d="m0 0 2 1z" fill="#59544E"/>
<path transform="translate(1090,59)" d="m0 0 2 1z" fill="#797978"/>
<path transform="translate(1090,35)" d="m0 0 2 1z" fill="#838284"/>
<path transform="translate(948,21)" d="m0 0 2 1z" fill="#828281"/>
</svg>
