<svg xmlns="http://www.w3.org/2000/svg" viewBox="0 0 420 320" role="img" aria-labelledby="title desc">
  <title id="title">PCCM Tools lung logo</title>
  <desc id="desc">Stylized blue and orange lungs with a central airway.</desc>
  <defs>
    <linearGradient id="lungBlue" x1="0%" y1="0%" x2="20%" y2="100%">
      <stop offset="0%" stop-color="#8cd4f1"/>
      <stop offset="58%" stop-color="#4b8ed7"/>
      <stop offset="100%" stop-color="#2666c6"/>
    </linearGradient>
    <linearGradient id="lungOrange" x1="20%" y1="0%" x2="90%" y2="100%">
      <stop offset="0%" stop-color="#ffc24f"/>
      <stop offset="58%" stop-color="#ff9730"/>
      <stop offset="100%" stop-color="#ff5f18"/>
    </linearGradient>
    <linearGradient id="airway" x1="50%" y1="0%" x2="50%" y2="100%">
      <stop offset="0%" stop-color="#8ea7cc"/>
      <stop offset="100%" stop-color="#5f7fb6"/>
    </linearGradient>
  </defs>

  <path
    fill="url(#airway)"
    d="M199 20c0-4 3-7 7-7h8c4 0 7 3 7 7v64c0 22 3 42 9 60 7 18 18 35 33 51l-12 18c-16-12-28-28-37-48-9-19-14-41-14-67 0 26-4 48-13 67-10 20-22 36-38 48l-12-18c16-16 28-33 35-51 7-18 10-38 10-60z"/>
  <path
    fill="url(#lungBlue)"
    d="M174 52c18 0 30 7 36 22 9 22 11 52 8 91-3 39-13 65-31 78-9 7-21 11-35 12-14 2-29 7-42 15-11 7-22 11-32 11-12 0-22-6-29-17-12-18-17-41-15-67 3-40 15-77 38-111 14-20 29-34 45-42 20-8 39-3 57 8z"/>
  <path
    fill="url(#lungOrange)"
    d="M246 52c18 0 36 5 52 16 16 9 31 24 45 44 24 34 36 72 39 113 2 26-3 49-15 67-7 11-17 17-29 17-10 0-20-4-31-11-14-9-28-14-43-15-14-2-25-6-34-12-18-13-29-39-32-78-3-39 0-69 8-91 6-15 19-22 40-22z"/>
</svg>
