<svg xmlns="http://www.w3.org/2000/svg" viewBox="0 0 360 320" preserveAspectRatio="xMidYMid meet" role="img" aria-labelledby="title desc">
  <title id="title">PCCM Tools lung logo</title>
  <desc id="desc">Stylized blue and orange lungs with a central airway.</desc>
  <defs>
    <linearGradient id="lungBlue" x1="0%" y1="0%" x2="20%" y2="100%">
      <stop offset="0%" stop-color="#8cd4f1"/>
      <stop offset="58%" stop-color="#4b8ed7"/>
      <stop offset="100%" stop-color="#2666c6"/>
    </linearGradient>
    <linearGradient id="lungOrange" x1="20%" y1="0%" x2="90%" y2="100%">
      <stop offset="0%" stop-color="#ffc24f"/>
      <stop offset="58%" stop-color="#ff9730"/>
      <stop offset="100%" stop-color="#ff5f18"/>
    </linearGradient>
    <linearGradient id="airway" x1="50%" y1="0%" x2="50%" y2="100%">
      <stop offset="0%" stop-color="#8ea7cc"/>
      <stop offset="100%" stop-color="#5f7fb6"/>
    </linearGradient>
  </defs>

  <path
    fill="url(#airway)"
    d="M165 19c0-4 3-7 7-7h16c4 0 7 3 7 7v55c0 19 2 37 7 52 5 17 13 31 26 45l-10 14c-14-11-24-24-31-40-5-12-8-25-10-40-2 15-5 28-10 40-7 16-18 29-32 40l-10-14c13-14 22-29 27-45 4-15 6-33 6-52z"/>
  <path
    fill="url(#lungBlue)"
    d="M156 49c17 0 28 6 33 20 7 18 10 45 8 80-1 39-7 68-18 87-8 14-20 23-36 25-17 2-34 8-52 19-10 6-20 10-29 10-12 0-21-5-28-16-11-16-16-38-16-65 0-41 9-80 27-117 12-24 27-42 45-55 21-15 43-19 66-11z"/>
  <path
    fill="url(#lungOrange)"
    d="M205 49c23-8 45-4 66 11 18 13 33 31 45 55 18 37 27 76 27 117 0 27-5 49-16 65-7 11-16 16-28 16-9 0-19-4-29-10-18-11-35-17-52-19-16-2-28-11-36-25-11-19-17-48-18-87-2-35 1-62 8-80 5-14 16-20 33-20z"/>
</svg>
